<mxfile host="65bd71144e">
    <diagram id="M8A4RHOV9gUAENp755q7" name="第 1 页">
        <mxGraphModel dx="835" dy="405" grid="1" gridSize="10" guides="1" tooltips="1" connect="1" arrows="1" fold="1" page="1" pageScale="1" pageWidth="827" pageHeight="1169" math="0" shadow="0">
            <root>
                <mxCell id="0"/>
                <mxCell id="1" parent="0"/>
                <mxCell id="2" value="==运算符" style="rounded=0;whiteSpace=wrap;html=1;" parent="1" vertex="1">
                    <mxGeometry x="10" y="230" width="100" height="50" as="geometry"/>
                </mxCell>
                <mxCell id="31" value="" style="endArrow=classic;html=1;" edge="1" parent="1">
                    <mxGeometry width="50" height="50" relative="1" as="geometry">
                        <mxPoint x="110" y="240" as="sourcePoint"/>
                        <mxPoint x="160" y="160" as="targetPoint"/>
                        <Array as="points">
                            <mxPoint x="110" y="160"/>
                        </Array>
                    </mxGeometry>
                </mxCell>
                <mxCell id="32" value="" style="endArrow=classic;html=1;" edge="1" parent="1">
                    <mxGeometry width="50" height="50" relative="1" as="geometry">
                        <mxPoint x="262" y="140" as="sourcePoint"/>
                        <mxPoint x="312" y="190" as="targetPoint"/>
                        <Array as="points">
                            <mxPoint x="262" y="190"/>
                            <mxPoint x="302" y="190"/>
                        </Array>
                    </mxGeometry>
                </mxCell>
                <mxCell id="33" value="" style="endArrow=classic;html=1;exitX=1;exitY=0.5;exitDx=0;exitDy=0;" edge="1" parent="1" source="2">
                    <mxGeometry width="50" height="50" relative="1" as="geometry">
                        <mxPoint x="110" y="260" as="sourcePoint"/>
                        <mxPoint x="160" y="255" as="targetPoint"/>
                    </mxGeometry>
                </mxCell>
                <mxCell id="34" value="特殊" style="rounded=0;whiteSpace=wrap;html=1;" vertex="1" parent="1">
                    <mxGeometry x="162" y="130" width="100" height="50" as="geometry"/>
                </mxCell>
                <mxCell id="35" value="类型相同" style="rounded=0;whiteSpace=wrap;html=1;" vertex="1" parent="1">
                    <mxGeometry x="160" y="230" width="100" height="50" as="geometry"/>
                </mxCell>
                <mxCell id="36" value="类型不同" style="rounded=0;whiteSpace=wrap;html=1;" vertex="1" parent="1">
                    <mxGeometry x="162" y="330" width="100" height="50" as="geometry"/>
                </mxCell>
                <mxCell id="37" value="" style="endArrow=classic;html=1;" edge="1" parent="1">
                    <mxGeometry width="50" height="50" relative="1" as="geometry">
                        <mxPoint x="262" y="170" as="sourcePoint"/>
                        <mxPoint x="312" y="120" as="targetPoint"/>
                        <Array as="points">
                            <mxPoint x="262" y="120"/>
                        </Array>
                    </mxGeometry>
                </mxCell>
                <mxCell id="39" value="undefined == null" style="rounded=0;whiteSpace=wrap;html=1;" vertex="1" parent="1">
                    <mxGeometry x="314" y="90" width="100" height="50" as="geometry"/>
                </mxCell>
                <mxCell id="40" value="NaN != NaN" style="rounded=0;whiteSpace=wrap;html=1;" vertex="1" parent="1">
                    <mxGeometry x="314" y="163" width="100" height="50" as="geometry"/>
                </mxCell>
                <mxCell id="42" value="" style="endArrow=classic;html=1;exitX=1;exitY=1;exitDx=0;exitDy=0;entryX=0;entryY=0.5;entryDx=0;entryDy=0;" edge="1" parent="1" source="2" target="36">
                    <mxGeometry width="50" height="50" relative="1" as="geometry">
                        <mxPoint x="110" y="370" as="sourcePoint"/>
                        <mxPoint x="160" y="370" as="targetPoint"/>
                        <Array as="points">
                            <mxPoint x="110" y="355"/>
                        </Array>
                    </mxGeometry>
                </mxCell>
                <mxCell id="43" value="" style="endArrow=classic;html=1;exitX=1;exitY=0.5;exitDx=0;exitDy=0;" edge="1" parent="1">
                    <mxGeometry width="50" height="50" relative="1" as="geometry">
                        <mxPoint x="260" y="254.5" as="sourcePoint"/>
                        <mxPoint x="310" y="254.5" as="targetPoint"/>
                    </mxGeometry>
                </mxCell>
                <mxCell id="44" value="比较值" style="rounded=0;whiteSpace=wrap;html=1;" vertex="1" parent="1">
                    <mxGeometry x="312.5" y="230" width="100" height="50" as="geometry"/>
                </mxCell>
                <mxCell id="45" value="" style="endArrow=classic;html=1;" edge="1" parent="1">
                    <mxGeometry width="50" height="50" relative="1" as="geometry">
                        <mxPoint x="262" y="340" as="sourcePoint"/>
                        <mxPoint x="312" y="390" as="targetPoint"/>
                        <Array as="points">
                            <mxPoint x="262" y="390"/>
                            <mxPoint x="302" y="390"/>
                        </Array>
                    </mxGeometry>
                </mxCell>
                <mxCell id="46" value="" style="endArrow=classic;html=1;" edge="1" parent="1">
                    <mxGeometry width="50" height="50" relative="1" as="geometry">
                        <mxPoint x="262" y="370" as="sourcePoint"/>
                        <mxPoint x="312" y="320" as="targetPoint"/>
                        <Array as="points">
                            <mxPoint x="262" y="320"/>
                        </Array>
                    </mxGeometry>
                </mxCell>
                <mxCell id="47" value="均为原始" style="rounded=0;whiteSpace=wrap;html=1;" vertex="1" parent="1">
                    <mxGeometry x="314" y="290" width="100" height="50" as="geometry"/>
                </mxCell>
                <mxCell id="48" value="一端对象&lt;br&gt;一端原始" style="rounded=0;whiteSpace=wrap;html=1;" vertex="1" parent="1">
                    <mxGeometry x="314" y="363" width="100" height="50" as="geometry"/>
                </mxCell>
                <mxCell id="49" value="" style="endArrow=classic;html=1;" edge="1" parent="1">
                    <mxGeometry width="50" height="50" relative="1" as="geometry">
                        <mxPoint x="414" y="316" as="sourcePoint"/>
                        <mxPoint x="464" y="316" as="targetPoint"/>
                    </mxGeometry>
                </mxCell>
                <mxCell id="50" value="转为数字比较" style="rounded=0;whiteSpace=wrap;html=1;" vertex="1" parent="1">
                    <mxGeometry x="464" y="290" width="100" height="50" as="geometry"/>
                </mxCell>
                <mxCell id="51" value="" style="endArrow=classic;html=1;" edge="1" parent="1">
                    <mxGeometry width="50" height="50" relative="1" as="geometry">
                        <mxPoint x="414" y="389.5" as="sourcePoint"/>
                        <mxPoint x="464" y="389.5" as="targetPoint"/>
                    </mxGeometry>
                </mxCell>
                <mxCell id="52" value="对象转原始后比较" style="rounded=0;whiteSpace=wrap;html=1;" vertex="1" parent="1">
                    <mxGeometry x="464" y="363" width="100" height="50" as="geometry"/>
                </mxCell>
                <mxCell id="53" value="" style="endArrow=classic;html=1;" edge="1" parent="1">
                    <mxGeometry width="50" height="50" relative="1" as="geometry">
                        <mxPoint x="512" y="413" as="sourcePoint"/>
                        <mxPoint x="512" y="463" as="targetPoint"/>
                    </mxGeometry>
                </mxCell>
                <mxCell id="55" value="先调用valueOf&lt;br&gt;再调用toString" style="rounded=0;whiteSpace=wrap;html=1;" vertex="1" parent="1">
                    <mxGeometry x="464" y="464" width="100" height="50" as="geometry"/>
                </mxCell>
            </root>
        </mxGraphModel>
    </diagram>
</mxfile>